<?xml version="1.0" standalone="no"?>
<!DOCTYPE svg PUBLIC "-//W3C//DTD SVG 20010904//EN"
 "http://www.w3.org/TR/2001/REC-SVG-20010904/DTD/svg10.dtd">
<svg version="1.0" xmlns="http://www.w3.org/2000/svg"
 width="10" height="10" viewBox="0 0 512.000000 512.000000"
 preserveAspectRatio="xMidYMid meet">

<g transform="translate(0.000000,512.000000) scale(0.100000,-0.100000)"
fill="#000000" stroke="none">
<path d="M1185 4899 c-206 -31 -390 -166 -480 -354 -69 -145 -65 -22 -65
-1985 0 -1963 -4 -1840 65 -1985 59 -123 161 -226 288 -291 145 -74 35 -69
1567 -69 1299 0 1379 1 1439 18 186 53 333 174 415 342 68 139 66 88 66 1465
0 1375 3 1312 -65 1455 -19 39 -58 98 -87 132 -64 75 -1321 1153 -1393 1194
-27 16 -86 41 -130 56 l-80 28 -740 1 c-407 1 -767 -2 -800 -7z m1375 -716 c0
-343 7 -392 71 -523 56 -114 169 -228 279 -282 133 -66 152 -68 663 -68 l457
0 10 -26 c6 -16 10 -479 10 -1252 0 -1173 -1 -1229 -19 -1267 -23 -49 -64 -89
-113 -109 -33 -14 -187 -16 -1358 -16 -1171 0 -1325 2 -1358 16 -47 19 -88 58
-113 106 -18 36 -19 85 -19 1798 0 1713 1 1762 19 1798 11 20 32 49 48 64 62
59 38 57 761 58 l662 0 0 -297z m730 -213 l274 -235 -44 -3 c-25 -2 -119 -2
-210 0 -146 3 -170 6 -205 25 -99 52 -115 96 -115 303 0 126 3 160 13 154 6
-5 136 -114 287 -244z"/>
<path d="M2325 3074 c-444 -75 -854 -362 -1146 -803 -137 -207 -133 -294 23
-523 33 -48 102 -136 153 -195 261 -303 584 -499 942 -570 133 -26 414 -24
550 5 406 87 769 339 1050 730 177 246 185 341 44 553 -296 446 -695 725
-1150 803 -115 19 -352 20 -466 0z m350 -415 c331 -41 638 -240 872 -567 l46
-63 -48 -70 c-58 -85 -214 -250 -301 -320 -209 -166 -436 -249 -684 -249 -315
0 -581 125 -838 394 -54 57 -120 136 -147 174 l-48 71 46 63 c192 268 445 459
704 533 147 42 257 51 398 34z"/>
<path d="M2439 2545 c-394 -100 -543 -571 -275 -871 105 -119 234 -176 396
-176 210 0 386 110 476 296 43 90 57 161 52 266 -12 218 -151 400 -358 470
-82 28 -214 35 -291 15z m184 -435 c38 -30 52 -80 33 -123 -15 -37 -59 -67
-96 -67 -37 0 -81 30 -96 67 -29 68 21 143 96 143 22 0 48 -8 63 -20z"/>
</g>
</svg>
