<?xml version="1.0" encoding="UTF-8"?>
<svg id="Capa_2" data-name="Capa 2" xmlns="http://www.w3.org/2000/svg" viewBox="0 0 14.03 15.3">
  <defs>
    <style>
      .cls-1 {
        fill: #555555;
        stroke-width: 0px;
        max-width: 10px;
      }
    </style>
  </defs>
  <g id="Object">
    <path class="cls-1" d="m13.97,14.71l-3.86-4.53c1.1-1.06,1.78-2.57,1.78-4.23,0-3.27-2.66-5.95-5.95-5.95S0,2.68,0,5.95s2.66,5.95,5.93,5.95c1.32,0,2.54-.43,3.53-1.17l3.86,4.52s.26.09.38.03c.09-.08.21-.17.26-.21.09-.08.08-.26,0-.35Zm-8.03-3.67c-2.8,0-5.1-2.28-5.1-5.1S3.13.85,5.93.85s5.1,2.28,5.1,5.1-2.28,5.1-5.1,5.1Z"/>
  </g>
</svg>