<?xml version="1.0" standalone="no"?>
<!DOCTYPE svg PUBLIC "-//W3C//DTD SVG 20010904//EN"
 "http://www.w3.org/TR/2001/REC-SVG-20010904/DTD/svg10.dtd">
<svg version="1.0" xmlns="http://www.w3.org/2000/svg"
 width="10" height="10" viewBox="0 0 512 512"
 preserveAspectRatio="xMidYMid meet">

<g transform="translate(0.000000,512.000000) scale(0.1,-0.1)"
fill="#000000" stroke="none">
<path d="M1085 4820 c-42 -17 -103 -73 -408 -377 -318 -319 -359 -364 -377
-411 -20 -53 -20 -75 -18 -1645 l3 -1592 28 -60 c36 -78 104 -146 181 -182
l61 -28 1027 0 1028 0 32 33 c28 28 33 39 33 82 0 43 -5 54 -33 82 l-32 33
-1010 5 -1010 5 -32 33 -33 32 -3 1485 -2 1484 262 3 263 3 60 28 c78 36 146
104 182 181 l28 61 3 263 3 262 1124 -2 1125 -3 32 -33 33 -32 3 -1050 2
-1050 -24 0 c-58 0 -228 -53 -331 -105 -129 -63 -216 -127 -308 -224 -124
-132 -216 -298 -264 -478 -23 -87 -26 -117 -26 -263 0 -146 3 -176 26 -263 30
-111 95 -256 157 -346 55 -83 158 -190 239 -252 92 -70 267 -154 386 -186 89
-23 118 -26 265 -26 147 0 176 3 265 26 235 63 452 207 596 396 70 92 154 267
186 386 23 89 26 118 26 265 0 147 -3 176 -26 265 -32 119 -116 294 -186 386
-62 81 -169 183 -250 238 -128 88 -307 159 -441 177 l-50 7 -2 1066 -3 1066
-28 61 c-36 77 -104 145 -182 181 l-60 28 -1235 2 c-1205 2 -1236 2 -1285 -17z
m-10 -686 c-3 -17 -19 -44 -36 -60 l-30 -29 -202 -3 -202 -3 235 236 235 235
3 -172 c2 -95 0 -187 -3 -204z m2815 -1945 c93 -15 204 -54 290 -102 101 -57
250 -205 307 -307 149 -266 149 -574 0 -840 -57 -102 -206 -250 -307 -307
-267 -149 -574 -149 -840 0 -102 57 -250 206 -307 307 -149 267 -149 573 0
840 57 101 205 250 307 307 170 95 367 132 550 102z"/>
<path d="M4220 1794 c-8 -4 -147 -137 -307 -298 l-293 -291 -155 155 -155 155
-50 0 c-43 0 -54 -5 -82 -33 -28 -28 -33 -39 -33 -82 l0 -50 213 -212 212
-213 50 0 50 0 352 353 353 352 0 50 c0 42 -5 54 -31 81 -31 30 -89 46 -124
33z"/>
<path d="M889 3457 c-70 -47 -70 -147 0 -194 l34 -23 1159 0 c1278 0 1190 -4
1224 61 32 62 0 143 -66 166 -26 9 -319 12 -1176 12 l-1141 1 -34 -23z"/>
<path d="M881 2814 c-42 -35 -55 -85 -34 -135 31 -80 -65 -74 1240 -74 l1163
0 32 33 c28 28 33 39 33 82 0 43 -5 54 -33 82 l-32 33 -1169 3 -1169 2 -31
-26z"/>
<path d="M882 2175 c-45 -38 -57 -82 -36 -134 32 -81 -28 -76 921 -76 l843 0
32 33 c28 28 33 39 33 82 0 43 -5 54 -33 82 l-32 33 -849 3 -849 2 -30 -25z"/>
</g>
</svg>
