<?xml version="1.0" standalone="no"?>
<!DOCTYPE svg PUBLIC "-//W3C//DTD SVG 20010904//EN"
 "http://www.w3.org/TR/2001/REC-SVG-20010904/DTD/svg10.dtd">
<svg version="1.0" xmlns="http://www.w3.org/2000/svg"
 width="10" height="10" viewBox="0 0 512.000000 512.000000"
 preserveAspectRatio="xMidYMid meet">

<g transform="translate(0.000000,512.000000) scale(0.100000,-0.100000)"
fill="#000000" stroke="none">
<path d="M240 5105 c-60 -19 -124 -75 -158 -139 l-27 -51 0 -2215 0 -2215 22
-41 c36 -67 70 -101 131 -131 l57 -28 1535 -3 c942 -2 1559 1 1597 7 113 17
184 69 229 165 24 51 24 53 24 417 0 297 3 369 14 378 10 9 40 -15 142 -112
l129 -124 -52 -57 c-59 -64 -78 -115 -68 -180 6 -38 31 -65 363 -394 196 -194
370 -359 385 -368 15 -8 36 -13 45 -10 10 3 118 106 240 229 181 181 222 228
222 250 0 23 -42 69 -237 260 -544 530 -517 507 -588 507 -54 0 -100 -24 -156
-81 l-50 -52 -42 39 c-23 21 -81 76 -129 123 l-86 84 45 66 c66 95 119 211
149 326 23 86 27 120 27 245 0 125 -4 159 -27 245 -14 55 -46 141 -71 190 -48
97 -153 236 -216 287 l-39 31 0 1062 c0 1213 6 1131 -84 1221 -92 91 55 84
-1720 83 -1307 0 -1568 -3 -1606 -14z m3197 -155 c67 -40 63 25 63 -1083 l0
-1005 -78 34 c-147 64 -218 77 -397 77 -132 0 -174 -3 -237 -21 -109 -30 -214
-75 -293 -127 l-68 -45 -929 -2 -930 -3 -19 -24 c-25 -30 -24 -62 2 -95 l20
-26 850 0 849 0 -46 -62 c-61 -82 -118 -204 -147 -314 l-24 -89 -741 -3 -741
-2 -20 -26 c-26 -33 -27 -65 -2 -95 l19 -24 735 -3 735 -2 7 -78 c12 -136 39
-236 102 -380 4 -9 -157 -12 -785 -12 l-791 0 -20 -26 c-12 -15 -21 -33 -21
-40 0 -29 25 -64 53 -74 20 -7 303 -10 849 -10 l819 0 54 -59 c185 -200 441
-310 725 -312 162 -1 276 26 458 108 9 4 12 -59 12 -297 0 -333 -1 -338 -64
-376 -30 -18 -80 -19 -1586 -19 -1506 0 -1556 1 -1586 19 -17 10 -39 31 -48
46 -15 26 -16 207 -16 2200 0 2379 -4 2214 58 2252 25 16 136 17 1587 18 1530
0 1561 0 1592 -20z m-265 -2124 c170 -33 280 -91 411 -216 135 -128 204 -241
248 -405 31 -113 31 -307 0 -420 -42 -158 -117 -283 -237 -394 -165 -154 -344
-224 -574 -223 -281 1 -527 133 -683 365 -91 134 -133 256 -144 412 -22 338
142 636 438 794 171 91 360 122 541 87z m1267 -1918 c108 -106 251 -247 319
-313 l122 -120 -148 -148 -148 -148 -317 312 c-174 171 -317 316 -317 323 0 6
50 61 111 121 61 61 120 122 131 138 10 15 26 27 35 27 8 0 103 -87 212 -192z"/>
<path d="M1270 4013 c-33 -12 -50 -37 -50 -73 0 -74 -34 -70 628 -70 579 0
592 0 612 20 27 27 26 81 -1 106 -20 18 -46 19 -598 21 -317 1 -583 -1 -591
-4z"/>
<path d="M579 3389 c-26 -10 -49 -45 -49 -75 0 -8 11 -26 25 -39 l24 -25 1271
0 c1257 0 1270 0 1290 20 38 38 22 100 -31 119 -41 14 -2491 14 -2530 0z"/>
<path d="M575 919 c-49 -27 -58 -70 -24 -113 l20 -26 1275 0 c1261 0 1274 0
1294 20 25 25 26 71 1 101 l-19 24 -1264 2 c-904 2 -1269 -1 -1283 -8z"/>
<path d="M2893 2700 c-162 -29 -323 -127 -420 -255 -109 -143 -158 -299 -150
-475 9 -194 81 -346 229 -487 133 -125 291 -187 478 -187 125 0 202 18 315 73
184 91 322 265 370 468 26 108 17 281 -19 388 -73 215 -245 382 -464 452 -87
28 -251 39 -339 23z m270 -156 c91 -23 169 -67 241 -134 124 -117 179 -239
180 -405 1 -163 -54 -296 -170 -408 -108 -103 -207 -147 -354 -154 -309 -17
-569 209 -595 517 -24 269 166 526 434 589 60 15 199 12 264 -5z"/>
</g>
</svg>
