<?xml version="1.0" standalone="no"?>
<!DOCTYPE svg PUBLIC "-//W3C//DTD SVG 20010904//EN"
 "http://www.w3.org/TR/2001/REC-SVG-20010904/DTD/svg10.dtd https://www.flaticon.es/iconos-gratis/asistir Asistir iconos creados por yaicon - Flaticon">
<svg version="1.0" xmlns="http://www.w3.org/2000/svg"
 width="10" height="10" viewBox="0 0 512.000000 512.000000"
 preserveAspectRatio="xMidYMid meet">

<g transform="translate(0.000000,512.000000) scale(0.100000,-0.100000)"
fill="#000000" stroke="none">
<path d="M2290 4795 c-8 -2 -49 -9 -90 -15 -211 -35 -416 -140 -582 -299 -232
-221 -352 -501 -352 -821 0 -320 120 -600 352 -821 349 -335 850 -412 1287
-199 168 81 307 198 423 355 64 87 148 265 179 380 24 92 27 116 27 285 0 169
-3 193 -27 285 -31 115 -115 293 -179 380 -223 303 -571 479 -936 474 -48 -1
-94 -3 -102 -4z m316 -335 c293 -75 522 -306 600 -605 24 -94 25 -292 1 -390
-38 -150 -150 -335 -260 -427 -110 -92 -248 -160 -382 -189 -92 -19 -265 -15
-360 10 -237 62 -437 223 -540 436 -67 138 -79 196 -79 365 0 169 12 228 79
365 169 347 566 530 941 435z"/>
<path d="M1270 2617 c-96 -35 -267 -185 -349 -305 -60 -89 -117 -213 -143
-312 -23 -84 -23 -95 -23 -660 l0 -575 23 -58 c48 -117 152 -221 270 -269 l57
-23 699 -3 699 -3 37 25 c94 62 92 189 -3 260 -28 21 -38 21 -702 26 -661 5
-674 5 -701 26 -15 11 -37 33 -48 48 -20 27 -21 40 -24 524 -3 562 -1 583 69
730 47 98 145 208 242 271 76 49 99 85 99 153 -1 107 -104 181 -202 145z"/>
<path d="M3435 2615 c-94 -34 -133 -147 -79 -230 9 -14 51 -49 94 -79 169
-119 266 -281 294 -496 9 -64 39 -108 89 -130 55 -25 83 -25 137 3 63 31 93
91 84 167 -18 168 -88 351 -183 479 -99 133 -282 283 -361 295 -20 3 -53 -1
-75 -9z"/>
<path d="M4145 1414 c-16 -8 -188 -172 -380 -364 l-350 -350 -180 181 c-178
179 -217 209 -272 209 -46 -1 -108 -35 -131 -72 -26 -42 -29 -115 -8 -156 22
-41 507 -520 539 -532 42 -15 83 -12 125 9 48 25 858 837 871 874 28 75 2 158
-61 197 -40 24 -111 26 -153 4z"/>
</g>
</svg>
