<?xml version="1.0" standalone="no"?>
<!DOCTYPE svg PUBLIC "-//W3C//DTD SVG 20010904//EN"
 "http://www.w3.org/TR/2001/REC-SVG-20010904/DTD/svg10.dtd">
<svg version="1.0" xmlns="http://www.w3.org/2000/svg"
viewBox="0 0 420.0 420.000000"
width="80" height="80"
 preserveAspectRatio="xMidYMid meet">

<g transform="translate(-1125.0,380.00000) scale(0.100000,-0.100000)"
fill="#000000" stroke="none">
    <!-- Rectángulo sin hueco-->
    <path d="M 12100 2300 
    C 12000 2070 12940 2200 11910 2030 
    C 11850 2 11970 820 11680 775 
    C 11688 700 11720 640 11780 610 
    L 11830 610 
    L 13020 610 
    L 14110 610 
    L 14065 610 
    C 14230 540 14090 650 13970 760 
    C 14100 810 14550 2000 13950 2120 
    C 14140 2190 14600 2250 14550 2180 
    L 14000 2209 
    L 13120 2210 
    C 12090 2210 12030 2205 12000 2200 Z" 
    fill="#ffffff" />
    
    <!-- Rectángulo con hueco-->
<path d="M12085 2296 c-90 -30 -160 -90 -198 -170 -30 -68 -238 -1296 -229 -1364 
8 -65 47 -126 103 -158 l47 -28 1195 0 1195 0 55 26 c69 33 126 89 156 154 
31 68 238 1296 229 1364 -8 65 -47 126 -103 158 l-47 28 -1180 2 c-933 1 
-1188 -1 -1220 -11z m739 -297 c14 -17 29 -43 32 -57 3 -15 10 -40 15 -57 
4 -16 25 -93 44 -170 32 -122 105 -404 164 -630 11 -38 28 -105 40 -147 
12 -43 21 -82 21 -88 0 -7 -37 -10 -107 -8 l-107 3 -47 181 c-25 100 -50 
187 -53 193 -5 7 -64 11 -180 11 l-172 0 -44 -172 c-24 -95 -48 -183 -53 
-195 -10 -22 -16 -23 -114 -23 -56 0 -103 2 -103 5 0 7 77 304 150 580 
27 105 68 262 91 350 67 267 55 255 254 255 l143 0 26 -31z m1216 -69 
l0 -100 -120 0 -120 0 0 -395 0 -395 120 0 120 0 0 -100 0 -100 
-350 0 -350 0 0 100 0 99 121 3 120 3 0 390 0 390 -120 3 -121 3 
0 99 0 100 350 0 350 0 0 -100z" 
fill="#006cd8"/>
  <!-- This is r logo circle -->
<path d="M14847 2790 c-96 -24 -173 -88 -216 -180 -21 -45 -25 -70 -25 -135 0
-96 21 -151 84 -219 64 -69 135 -100 230 -100 95 0 166 31 230 100 63 68 84
123 84 219 0 95 -27 166 -89 229 -71 72 -202 110 -298 86z m185 -62 c130 -55
199 -229 141 -359 -101 -227 -405 -227 -506 0 -70 156 35 348 206 380 53 10
100 4 159 -21z" 
fill="#006cd8"/>
  <!-- This is r logo -->
<path d="M14820 2475 l0 -135 25 0 c24 0 25 3 25 55 0 72 18 72 56 0 24 -46
33 -55 57 -55 15 0 27 3 27 6 0 3 -12 26 -27 51 l-26 45 20 17 c31 24 45 59
38 92 -10 45 -39 59 -122 59 l-73 0 0 -135z m140 75 c20 -37 -12 -70 -66 -70
-22 0 -24 4 -24 45 l0 45 40 0 c29 0 42 -5 50 -20z" 
fill="#006cd8"/>
  <!-- This is blue rectangular of A -->
<path d="M12611 1748 c-20 -80 -63 -239 -77 -285 -6 -23 -6 -23 116 -23 122 0
122 0 115 23 -13 42 -95 355 -95 365 0 1 -8 2 -19 2 -15 0 -23 -16 -40 -82z" 
fill="#006cd8"/>

</g>
</svg>
