<?xml version="1.0" standalone="no"?>
<!DOCTYPE svg PUBLIC "-//W3C//DTD SVG 20010904//EN"
 "http://www.w3.org/TR/2001/REC-SVG-20010904/DTD/svg10.dtd">
<svg version="1.0" xmlns="http://www.w3.org/2000/svg"
 width="10" height="10" viewBox="0 0 32.000000 32.000000"
 preserveAspectRatio="xMidYMid meet">
<!--PUBLIC Send icons created by Tanah Basah - Flaticon https://www.flaticon.com/free-icons/send-->
<g transform="translate(0.000000,32.000000) scale(0.100000,-0.100000)"
fill="#000000" stroke="none">
<path d="M20 279 c0 -11 5 -40 11 -65 11 -44 12 -44 55 -44 24 0 44 -4 44 -10
0 -5 -20 -10 -44 -10 -43 0 -44 0 -55 -44 -15 -61 -14 -86 4 -86 29 0 265 124
265 140 0 16 -236 140 -265 140 -8 0 -15 -9 -15 -21z"/>
</g>
</svg>
