<?xml version="1.0" standalone="no"?>
<!DOCTYPE svg PUBLIC "-//W3C//DTD SVG 20010904//EN"
 "http://www.w3.org/TR/2001/REC-SVG-20010904/DTD/svg10.dtd https://www.flaticon.es/iconos-gratis/colombia colombia iconos Colombia iconos creados por Freepik - Flaticonz"
>
<svg xmlns="http://www.w3.org/2000/svg" width="10" height="10" viewBox="0 0 512.000000 512.000000">
    <path style="fill:#ffda44; stroke:none;" d="M0 85L0 256L512 256L512 85L0 85z"/>
    <path style="fill:#0052b4; stroke:none;" d="M0 256L0 343L512 343L512 256L0 256z"/>
    <path style="fill:#c61b37; stroke:none;" d="M0 343C4.46874 344.875 10.1913 344 15 344L45 344L149 344L512 344C507.531 342.125 501.809 343 497 343L467 343L363 343L0 343z"/>
    <path style="fill:#d80027; stroke:none;" d="M0 344L0 426L512 426L512 344L0 344z"/>
    <path style="fill:#e2362e; stroke:none;" d="M0 426C4.46874 427.875 10.1913 427 15 427L45 427L149 427L512 427C507.531 425.125 501.809 426 497 426L467 426L363 426L0 426z"/>
</svg>

