<?xml version="1.0" standalone="no"?>
<!DOCTYPE svg PUBLIC "-//W3C//DTD SVG 20010904//EN"
 "http://www.w3.org/TR/2001/REC-SVG-20010904/DTD/svg10.dtd">
<svg version="1.0" xmlns="http://www.w3.org/2000/svg"
 width="10" height="10" viewBox="0 0 512.000000 512.000000"
 preserveAspectRatio="xMidYMid meet">

<g transform="translate(0.000000,512.000000) scale(0.100000,-0.100000)"
fill="#000000" stroke="none">
<path d="M2335 4789 c-694 -71 -1326 -470 -1687 -1064 -436 -716 -436 -1614 0
-2330 280 -461 737 -817 1249 -974 239 -73 394 -95 663 -95 237 0 353 13 553
64 779 197 1411 823 1612 1596 54 207 69 331 69 574 0 185 -4 247 -22 350 -42
249 -99 424 -207 645 -318 647 -949 1109 -1665 1220 -127 19 -441 27 -565 14z
m530 -334 c221 -39 396 -97 584 -196 364 -191 642 -475 825 -844 83 -166 121
-274 160 -446 141 -634 -54 -1299 -518 -1765 -463 -463 -1128 -658 -1766 -517
-363 80 -683 255 -946 517 -750 749 -750 1963 0 2712 307 306 689 492 1126
550 131 17 410 11 535 -11z"/>
<path d="M2400 3200 l0 -480 -480 0 -480 0 0 -160 0 -160 480 0 480 0 0 -480
0 -480 160 0 160 0 0 480 0 480 480 0 480 0 0 160 0 160 -480 0 -480 0 0 480
0 480 -160 0 -160 0 0 -480z"/>
</g>
</svg>
