<?xml version="1.0" encoding="utf-8"?>
<svg viewBox="23.894 15.044 124.779 144.248" xmlns="http://www.w3.org/2000/svg">
  <path class="cls-1" d="M 45.319 62.51 L 128.799 62.51 C 129.47 62.484 130.141 62.537 130.799 62.67 C 131.886 62.91 132.885 63.45 133.679 64.23 C 134.602 65.116 135.183 66.299 135.319 67.57 C 135.344 68.051 135.324 68.533 135.259 69.01 L 128.149 142.66 L 128.149 142.79 L 128.149 143.07 C 128.102 143.375 128.035 143.675 127.949 143.97 L 127.949 144.03 C 127.176 146.412 124.982 148.044 122.479 148.1 L 51.469 148.1 C 51.047 148.08 50.628 148.016 50.219 147.91 C 49.817 147.79 49.428 147.63 49.059 147.43 C 47.289 146.412 46.137 144.586 45.979 142.55 L 38.979 69.06 C 38.899 68.511 38.879 67.954 38.919 67.4 C 39.059 66.146 39.636 64.982 40.549 64.11 C 41.376 63.306 42.418 62.758 43.549 62.53 C 44.14 62.427 44.74 62.384 45.339 62.4 L 45.319 62.51 Z M 39.799 34.15 L 71.269 34.15 L 71.269 31.35 C 71.264 31.261 71.264 31.17 71.269 31.08 C 71.332 29.573 71.96 28.145 73.029 27.08 C 74.151 25.973 75.663 25.352 77.239 25.35 L 96.609 25.35 L 96.909 25.35 C 100.105 25.51 102.613 28.15 102.609 31.35 L 102.609 34.15 L 134.609 34.15 L 134.999 34.15 C 137.341 34.342 139.182 36.234 139.309 38.58 C 139.309 38.76 139.309 38.9 139.309 39.08 L 139.309 48.94 C 139.309 50.371 138.149 51.53 136.719 51.53 L 36.739 51.53 C 35.32 51.531 34.165 50.389 34.149 48.97 L 34.149 38.88 C 34.139 38.777 34.139 38.674 34.149 38.57 C 34.29 36.404 35.891 34.612 38.029 34.23 C 38.616 34.154 39.208 34.127 39.799 34.15 Z M 81.899 86.85 C 82.274 83.198 86.463 81.321 89.439 83.473 C 90.541 84.269 91.25 85.498 91.389 86.85 L 91.389 123.85 C 91.014 127.503 86.825 129.38 83.849 127.228 C 82.747 126.432 82.038 125.203 81.899 123.85 L 81.899 86.85 Z M 105.629 86.65 C 105.902 84.156 108.132 82.345 110.629 82.59 C 113.109 82.568 115.134 84.57 115.139 87.05 L 113.139 124.05 C 112.871 126.548 110.638 128.361 108.139 128.11 C 105.659 128.133 103.634 126.131 103.629 123.65 L 105.629 86.65 Z M 59.149 87.05 C 59.149 84.572 61.17 82.568 63.649 82.59 C 66.147 82.345 68.376 84.156 68.649 86.65 L 70.649 123.65 C 70.644 126.131 68.619 128.133 66.139 128.11 C 63.64 128.361 61.407 126.548 61.139 124.05 L 59.139 87.05 L 59.149 87.05 Z" style="fill-rule: evenodd; fill: rgb(255, 0, 0);"/>
</svg>