<?xml version="1.0" encoding="utf-8"?>
<svg viewBox="0 0 82.416 75.009" xmlns="http://www.w3.org/2000/svg" xmlns:bx="https://boxy-svg.com">
  <rect x="2.885" y="2.656" width="77.111" height="69.796" style="fill: rgb(0, 108, 216); stroke: rgb(0, 108, 216);" rx="6.115" ry="6.115" transform="matrix(0.9999999999999999, 0, 0, 0.9999999999999999, -2.842170943040401e-14, -1.4210854715202004e-14)"/>
  <rect x="32.699" y="12.708" width="17.845" height="29.838" style="fill: rgb(255, 255, 255); stroke: rgb(255, 255, 255);" rx="0.527" ry="0.527" transform="matrix(0.9999999999999999, 0, 0, 0.9999999999999999, -2.842170943040401e-14, -1.4210854715202004e-14)"/>
  <path d="M -42.46 -51.874 Q -41.752 -52.672 -41.045 -51.874 L -26.003 -34.91 Q -25.295 -34.112 -26.71 -34.112 L -56.795 -34.112 Q -58.21 -34.112 -57.502 -34.91 Z" style="fill: rgb(255, 255, 255); stroke: rgb(255, 255, 255); transform-origin: -41.7525px -43.1925px;" transform="matrix(-1, 0, 0, -1, 83.504997253418, 86.38500213623)" bx:shape="triangle -58.21 -52.672 32.915 18.56 0.5 0.043 1@4c24d499"/>
  <rect x="25.831" y="58.295" width="32.024" height="4.593" style="fill: rgb(255, 255, 255); stroke: rgb(255, 255, 255);" rx="0.527" ry="0.527" transform="matrix(0.9999999999999999, 0, 0, 0.9999999999999999, -2.842170943040401e-14, -1.4210854715202004e-14)"/>
</svg>