<?xml version="1.0" encoding="UTF-8"?>
<svg id="Capa_2" data-name="Capa 2" xmlns="http://www.w3.org/2000/svg" viewBox="0 0 15.81 15.29">
  <defs>
    <style>
      .cls-1 {
        fill: #e6e6e7;
        stroke-width: 0px;
      }
    </style>
  </defs>
  <g id="Object">
    <path class="cls-1" d="m15.75,8.06s-.08.09-.13.12c-.13.08-.32,0-.36-.03l-1.52-1.44v8.37c0,.12-.09.21-.21.21h-3.72c-.11,0-.21-.09-.21-.21v-5.33h-3.42v5.33c0,.12-.09.21-.21.21h-3.72c-.11,0-.2-.09-.2-.21V6.61l-1.54,1.54c-.08.08-.31.07-.39-.01-.09-.08-.17-.29-.08-.37L7.74.06c.08-.08.22-.08.3,0l7.71,7.71c.08.08.08.21,0,.29Z"/>
  </g>
</svg>