<?xml version="1.0" encoding="UTF-8"?>
<svg id="Capa_2" data-name="Capa 2" xmlns="http://www.w3.org/2000/svg" viewBox="0 0 22.94 17.75">
  <defs>
    <style>
      .cls-1 {
        fill: #e6e6e7;
        stroke-width: 0px;
      }
    </style>
  </defs>
  <g id="Object">
    <g>
      <path class="cls-1" d="m15.15,10.32l-3.3-3.43s-.01-.02-.02-.02l-.02-.02s-.06-.04-.09-.06c0,0-.01,0-.01,0-.04-.01-.07-.02-.11-.02h0s0,0,0,0h0s-.07,0-.1.02c0,0-.01,0-.01,0-.04.02-.07.04-.09.06h-.01s-.02.04-.03.05l-3.31,3.69c-.1.15-.06.34.09.44.05.04.12.05.18.05.1,0,.2-.05.26-.14l2.73-3.09v9.57c0,.18.14.32.32.32s.32-.14.32-.32V7.77l2.73,2.94c.11.14.31.17.45.06.14-.11.17-.31.06-.45Z"/>
      <path class="cls-1" d="m17.05,2.95c-.39,0-.78.04-1.19.13-1.06-1.91-3.01-3.08-5.16-3.08-2.75,0-5.13,1.94-5.77,4.66-.15-.02-.29-.02-.42-.02C2.02,4.63,0,6.7,0,9.24c0,1.19.45,3.3,1.28,4.18.06.06.14.1.23.1h5.46c.18,0,.32-.14.32-.32s-.14-.32-.32-.32H1.66c-.59-.73-1.02-2.48-1.02-3.64,0-2.19,1.73-3.97,3.86-3.97.19,0,.4.02.62.06.17.03.33-.09.37-.26.47-2.57,2.66-4.43,5.21-4.43,1.99,0,3.8,1.13,4.71,2.96.07.13.22.2.36.17.43-.11.86-.17,1.27-.17,2.9,0,5.26,2.42,5.26,5.4,0,1.18-.34,3-.85,3.89h-5.02c-.18,0-.32.14-.32.32s.14.32.32.32h5.2c.11,0,.21-.05.26-.14.68-1.01,1.04-3.19,1.04-4.38,0-3.33-2.64-6.04-5.89-6.04Z"/>
    </g>
  </g>
</svg>