<?xml version="1.0" encoding="UTF-8"?>
<svg id="Capa_2" data-name="Capa 2" xmlns="http://www.w3.org/2000/svg" viewBox="0 0 28.31 25.75">
  <defs>
    <style>
      .cls-1 {
        fill: #e6e6e7;
        stroke-width: 0px;
      }
    </style>
  </defs>
  <g id="Object">
    <path class="cls-1" d="m9.77,15.25c2.28-.86,3.88-3.06,3.88-5.62,0-3.33-2.71-6.05-6.05-6.05S1.56,6.3,1.56,9.63c0,2.62,1.67,4.84,4.01,5.67-3.22.93-5.57,3.92-5.57,7.44v2.67c0,.2.15.34.34.34h14.82c.2,0,.34-.15.34-.34v-2.67c0-3.58-2.44-6.61-5.74-7.49Zm-7.51-5.62c0-2.95,2.4-5.35,5.35-5.35s5.35,2.4,5.35,5.35-2.32,5.26-5.21,5.34h-.15c-2.95,0-5.35-2.38-5.35-5.34Zm12.48,15.38H.77v-2.3c0-3.8,3.05-6.92,6.84-7h.14c3.85,0,6.98,3.15,6.98,7v2.3Z"/>
    <path class="cls-1" d="m20.65,0c-4.26,0-7.69,3.44-7.69,7.67s3.43,7.67,7.69,7.67,7.67-3.43,7.67-7.67S24.87,0,20.65,0Zm4.62,9.04h-2.9v3.25h-3.08v-3.25h-3.25v-3.08h3.25v-2.9h3.08v2.9h2.9v3.08Z"/>
  </g>
</svg>