<?xml version="1.0" encoding="UTF-8"?>
<svg id="Capa_2" data-name="Capa 2" xmlns="http://www.w3.org/2000/svg" viewBox="0 0 10.45 15.34">
  <defs>
    <style>
      .cls-1 {
        fill: #e6e6e7;
        stroke-width: 0px;
      }
    </style>
  </defs>
  <g id="Object">
    <g>
      <path class="cls-1" d="m5.38,7.88H.24c-.09,0-.17-.04-.21-.11-.04-.07-.04-.15,0-.21L5.18.1c.06-.08.17-.12.27-.1.11.03.18.11.18.2v7.46c0,.12-.11.21-.24.21Zm-3.86-.9h3.3V2.2L1.52,6.98Z"/>
      <path class="cls-1" d="m5.07,15.34s-.04,0-.06,0c-.11-.03-.18-.11-.18-.2v-7.46c0-.12.11-.21.24-.21h5.14c.09,0,.17.04.21.11.04.07.04.15,0,.21l-5.14,7.46c-.04.06-.12.1-.21.1Zm.64-7.13v4.97l3.43-4.97h-3.43Z"/>
    </g>
  </g>
</svg>