<?xml version="1.0" encoding="UTF-8"?>
<svg id="Capa_2" data-name="Capa 2" xmlns="http://www.w3.org/2000/svg" viewBox="0 0 21.12 20.47">
  <defs>
    <style>
      .cls-1 {
        <!-- fill: #e6e6e7; -->
        fill: #555555;
        stroke-width: 0px;
      }
    </style>
  </defs>
  <g id="Object">
    <g>
      <path class="cls-1" d="m10.4,18.37c-.39,0-.78-.02-1.16-.05l-5.12-.46H1.1c-.3,0-.59-.12-.8-.34-.21-.22-.32-.51-.3-.81.03-.58.53-1.04,1.14-1.04h.57c1.18,0,2.15-.96,2.15-2.15v-5.69c0-3.61,2.93-6.54,6.54-6.54s6.54,2.93,6.54,6.54v5.69c0,1.18.96,2.15,2.15,2.15h.89c.55,0,1.04.39,1.13.9.06.32-.03.65-.24.9-.21.25-.52.39-.84.39h-3.37l-5.09.46c-.39.03-.77.05-1.16.05Zm-9.25-2.14c-.3,0-.56.23-.58.5,0,.15.04.29.14.39.1.11.24.17.39.17h3.04l5.15.47c.74.07,1.48.07,2.22,0l5.12-.46h3.4c.16,0,.31-.07.41-.19.1-.12.14-.28.12-.44-.04-.25-.29-.43-.57-.43h-.89c-1.5,0-2.71-1.22-2.71-2.71v-5.69c0-3.29-2.68-5.97-5.97-5.97s-5.97,2.68-5.97,5.97v5.69c0,1.5-1.22,2.71-2.71,2.71h-.57Z"/>
      <path class="cls-1" d="m10.4,20.47c-1.27,0-2.31-1.04-2.31-2.31,0-.16.13-.28.28-.28s.28.13.28.28c0,.96.78,1.74,1.74,1.74s1.74-.78,1.74-1.74c0-.16.13-.28.28-.28s.28.13.28.28c0,1.27-1.04,2.31-2.31,2.31Z"/>
      <path class="cls-1" d="m10.4,4.09c-.16,0-.28-.13-.28-.28V.28c0-.16.13-.28.28-.28s.28.13.28.28v3.52c0,.16-.13.28-.28.28Z"/>
    </g>
  </g>
</svg>