<?xml version="1.0" encoding="UTF-8"?>
<svg id="Capa_2" data-name="Capa 2" xmlns="http://www.w3.org/2000/svg" viewBox="0 0 21.37 22.32">
  <defs>
    <style>
      .cls-1 {
        fill: #555555;
        stroke-width: 0px;
      }
    </style>
  </defs>
  <g id="Object">
    <g>
      <g>
        <path class="cls-1" d="m15.69,12.66c-.03-.07-.03-.15.02-.21l1.68-2.27c.04-.05.1-.09.17-.09.07,0,.13.03.17.09l1.65,2.29c.07.09.05.23-.05.29-.09.07-.23.05-.29-.05l-1.49-2.05-1.5,2.04c-.07.09-.2.11-.29.04-.03-.02-.05-.05-.07-.08Z"/>
        <path class="cls-1" d="m17.48,14.79c-.69,1.95-2.1,3.53-3.96,4.42-.46.22-.94.39-1.42.51v-.43c.42-.12.84-.27,1.24-.46,1.76-.84,3.1-2.33,3.74-4.18.49-1.38.55-2.85.19-4.27-.03-.11.04-.23.15-.25.11-.03.23.04.25.15.38,1.49.32,3.05-.2,4.51Z"/>
      </g>
      <g>
        <path class="cls-1" d="m3.73,8.3c.03.07.03.15-.02.21l-1.68,2.27c-.04.05-.1.09-.17.09-.07,0-.13-.03-.17-.09L.04,8.5c-.07-.09-.05-.23.05-.29.09-.07.23-.05.29.05l1.49,2.05,1.5-2.04c.07-.09.2-.11.29-.04.03.02.05.05.07.08Z"/>
        <path class="cls-1" d="m1.94,6.17c.69-1.95,2.1-3.53,3.96-4.42.46-.22.94-.39,1.42-.51v.43c-.42.12-.84.27-1.24.46-1.76.84-3.1,2.33-3.74,4.18-.49,1.38-.55,2.85-.19,4.27.03.11-.04.23-.15.25-.11.03-.23-.04-.25-.15-.38-1.49-.32-3.05.2-4.51Z"/>
      </g>
      <g>
        <path class="cls-1" d="m10.32,10.09h-6.14c-.29,0-.52.23-.52.52v11.2c0,.29.23.52.52.52h6.14c.29,0,.52-.23.52-.52v-11.2c0-.29-.23-.52-.52-.52Zm0,11.72h-6.15v-1.53h6.15v1.53Zm0-2.04h-6.15v-9.16h6.15v9.16Z"/>
        <path class="cls-1" d="m6.81,21.3h.87c.14,0,.26-.12.26-.26s-.12-.26-.26-.26h-.87c-.14,0-.26.12-.26.26s.12.26.26.26Z"/>
      </g>
      <path class="cls-1" d="m12.06,13.14s-.07,0-.1-.02c-.09-.04-.15-.13-.15-.24v-3.99h-3.17c-.14,0-.26-.12-.26-.26V.26c0-.14.12-.26.26-.26h12.49c.14,0,.26.12.26.26v8.38c0,.14-.12.26-.26.26h-4.32l-4.56,4.18s-.11.07-.17.07Zm-3.17-4.76h3.17c.14,0,.26.12.26.26v3.66l4.2-3.85s.11-.07.17-.07h4.16V.51h-11.97v7.87Z"/>
      <g>
        <path class="cls-1" d="m13.81,3.54l-.75.99v.02l1.2-.16v.54l-1.2-.14v.02l.76.95-.5.29-.48-1.11h-.02l-.52,1.12-.45-.29.75-.97v-.02l-1.18.15v-.54l1.17.15v-.02l-.75-.97.48-.28.49,1.1h.02l.48-1.11.48.27Z"/>
        <path class="cls-1" d="m17.83,3.54l-.75.99v.02l1.2-.16v.54l-1.2-.14v.02l.76.95-.5.29-.48-1.11h-.02l-.52,1.12-.45-.29.75-.97v-.02l-1.18.15v-.54l1.17.15v-.02l-.75-.97.48-.28.49,1.1h.02l.48-1.11.48.27Z"/>
      </g>
    </g>
  </g>
</svg>