<?xml version="1.0" encoding="UTF-8"?>
<svg id="Capa_2" data-name="Capa 2" xmlns="http://www.w3.org/2000/svg" viewBox="0 0 20.29 20.29">
  <defs>
    <style>
      .cls-1 {
        <!-- fill: #e6e6e7; -->
        fill: #006CD8;
        stroke-width: 0px;
      }
    </style>
  </defs>
  <g id="Object">
    <g>
      <path class="cls-1" d="m11.23,20.29h-2.16c-.42,0-.76-.34-.76-.76v-.92c0-.44-.28-.83-.7-.98-.33-.11-.65-.25-.97-.4-.39-.19-.85-.12-1.15.18l-.67.67c-.29.29-.79.29-1.07,0l-1.53-1.53c-.3-.3-.3-.78,0-1.07l.68-.68c.3-.3.37-.76.18-1.14-.15-.31-.29-.64-.4-.97-.14-.42-.53-.7-.97-.7h-.95c-.42,0-.76-.34-.76-.76v-2.16c0-.42.34-.76.76-.76h.97c.43,0,.82-.28.96-.69.11-.32.24-.64.4-.95.19-.39.12-.85-.18-1.15l-.7-.7c-.14-.14-.22-.33-.22-.54s.08-.39.22-.54l1.53-1.53c.29-.29.79-.29,1.07,0l.71.71c.3.3.76.37,1.15.18.31-.15.63-.28.95-.39.41-.14.69-.52.69-.95v-.99c0-.42.34-.76.76-.76h2.16c.42,0,.76.34.76.76v.99c0,.43.28.81.69.95.32.11.64.24.95.39.39.19.85.12,1.15-.18l.71-.71c.3-.3.78-.3,1.08,0l1.53,1.53c.14.14.22.33.22.54s-.08.39-.22.54l-.7.7c-.3.3-.37.76-.18,1.15.15.31.29.63.4.95.14.41.53.69.96.69h.97c.42,0,.76.34.76.76v2.16c0,.42-.34.76-.76.76h-.95c-.44,0-.82.28-.97.7-.11.33-.25.65-.4.97-.19.38-.12.84.18,1.14l.68.68c.3.3.3.78,0,1.07l-1.53,1.53c-.3.3-.78.3-1.08,0l-.67-.67c-.3-.3-.76-.37-1.15-.18-.31.16-.64.29-.97.4-.42.14-.7.54-.7.98v.92c0,.42-.34.76-.76.76Zm-5.04-3.74c.24,0,.48.05.7.17.29.14.59.27.9.37.65.22,1.09.83,1.09,1.51v.92c0,.11.09.19.19.19h2.16c.11,0,.19-.09.19-.19v-.92c0-.68.44-1.29,1.09-1.51.31-.1.61-.23.9-.37.6-.3,1.33-.19,1.8.29l.67.67c.08.08.2.08.27,0l1.53-1.53s.06-.09.06-.14-.02-.1-.06-.14l-.68-.68c-.47-.47-.59-1.19-.29-1.8.14-.29.27-.59.37-.9.22-.65.82-1.08,1.5-1.08h.95c.11,0,.19-.09.19-.19v-2.16c0-.11-.09-.19-.19-.19h-.97c-.68,0-1.28-.43-1.5-1.08-.1-.3-.23-.6-.37-.88-.3-.6-.19-1.33.29-1.8l.7-.7s.06-.09.06-.14-.02-.1-.06-.14l-1.53-1.53c-.08-.08-.2-.08-.27,0l-.71.71c-.47.47-1.19.59-1.8.29-.29-.14-.58-.26-.88-.37-.64-.22-1.07-.82-1.07-1.49v-.99c0-.11-.09-.19-.19-.19h-2.16c-.11,0-.19.09-.19.19v.99c0,.67-.43,1.27-1.07,1.49-.3.1-.6.22-.88.37-.6.3-1.33.18-1.8-.29l-.71-.71c-.07-.07-.2-.07-.27,0l-1.53,1.53s-.06.09-.06.14.02.1.06.14l.7.7c.47.47.59,1.2.29,1.8-.14.28-.27.58-.37.88-.22.64-.82,1.08-1.5,1.08h-.97c-.11,0-.19.09-.19.19v2.16c0,.11.09.19.19.19h.95c.68,0,1.28.44,1.5,1.08.1.31.23.61.37.9.3.6.18,1.32-.29,1.8l-.68.68s-.06.09-.06.14.02.1.06.14l1.53,1.53c.07.07.2.07.27,0l.67-.67c.3-.3.7-.45,1.1-.45Z"/>
      <path class="cls-1" d="m10.15,15.81c-3.12,0-5.66-2.54-5.66-5.66s2.54-5.66,5.66-5.66,5.66,2.54,5.66,5.66-2.54,5.66-5.66,5.66Zm0-10.76c-2.81,0-5.1,2.29-5.1,5.1s2.29,5.1,5.1,5.1,5.1-2.29,5.1-5.1-2.29-5.1-5.1-5.1Z"/>
    </g>
  </g>
</svg>