<?xml version="1.0" standalone="no"?>
<!DOCTYPE svg PUBLIC "-//W3C//DTD SVG 20010904//EN"
 "http://www.w3.org/TR/2001/REC-SVG-20010904/DTD/svg10.dtd">
<svg version="1.0" xmlns="http://www.w3.org/2000/svg"
 width="1634.000000pt" height="343.000000pt" viewBox="0 0 1634.000000 343.000000"
 preserveAspectRatio="xMidYMid meet">

<g transform="translate(0.000000,343.000000) scale(0.100000,-0.100000)"
fill="#000000" stroke="none">
    <!-- Rectángulo sin hueco-->
    <path d="M 12100 2300 
    C 12000 2070 12940 2200 11910 2030 
    C 11850 2 11970 820 11680 775 
    C 11688 700 11720 640 11780 610 
    L 11830 610 
    L 13020 610 
    L 14110 610 
    L 14065 610 
    C 14230 540 14090 650 13970 760 
    C 14100 810 14550 2000 13950 2120 
    C 14140 2190 14600 2250 14550 2180 
    L 14000 2209 
    L 13120 2210 
    C 12090 2210 12030 2205 12000 2200 Z" 
    fill="#000000" />
    
    <!-- Rectángulo con hueco-->
<path d="M12085 2296 c-90 -30 -160 -90 -198 -170 -30 -68 -238 -1296 -229 -1364 
8 -65 47 -126 103 -158 l47 -28 1195 0 1195 0 55 26 c69 33 126 89 156 154 
31 68 238 1296 229 1364 -8 65 -47 126 -103 158 l-47 28 -1180 2 c-933 1 
-1188 -1 -1220 -11z m739 -297 c14 -17 29 -43 32 -57 3 -15 10 -40 15 -57 
4 -16 25 -93 44 -170 32 -122 105 -404 164 -630 11 -38 28 -105 40 -147 
12 -43 21 -82 21 -88 0 -7 -37 -10 -107 -8 l-107 3 -47 181 c-25 100 -50 
187 -53 193 -5 7 -64 11 -180 11 l-172 0 -44 -172 c-24 -95 -48 -183 -53 
-195 -10 -22 -16 -23 -114 -23 -56 0 -103 2 -103 5 0 7 77 304 150 580 
27 105 68 262 91 350 67 267 55 255 254 255 l143 0 26 -31z m1216 -69 
l0 -100 -120 0 -120 0 0 -395 0 -395 120 0 120 0 0 -100 0 -100 
-350 0 -350 0 0 100 0 99 121 3 120 3 0 390 0 390 -120 3 -121 3 
0 99 0 100 350 0 350 0 0 -100z" 
fill="#006cd8"/>
  <!-- This is r logo circle -->
<path d="M15147 2790 c-96 -24 -173 -88 -216 -180 -21 -45 -25 -70 -25 -135 0
-96 21 -151 84 -219 64 -69 135 -100 230 -100 95 0 166 31 230 100 63 68 84
123 84 219 0 95 -27 166 -89 229 -71 72 -202 110 -298 86z m185 -62 c130 -55
199 -229 141 -359 -101 -227 -405 -227 -506 0 -70 156 35 348 206 380 53 10
100 4 159 -21z" 
fill="#006cd8"/>
  <!-- This is r logo -->
<path d="M15120 2475 l0 -135 25 0 c24 0 25 3 25 55 0 72 18 72 56 0 24 -46
33 -55 57 -55 15 0 27 3 27 6 0 3 -12 26 -27 51 l-26 45 20 17 c31 24 45 59
38 92 -10 45 -39 59 -122 59 l-73 0 0 -135z m140 75 c20 -37 -12 -70 -66 -70
-22 0 -24 4 -24 45 l0 45 40 0 c29 0 42 -5 50 -20z" 
fill="#006cd8"/>
  <!-- This is ocu -->
<path d="M6720 2329 c-207 -53 -379 -189 -469 -372 -65 -133 -76 -188 -76
-380 l0 -168 -55 -40 c-126 -96 -254 -159 -323 -159 -41 0 -89 51 -116 125
-33 86 -39 229 -16 389 20 142 16 176 -18 176 -46 0 -60 -21 -152 -230 -114
-261 -163 -337 -315 -488 -142 -141 -254 -187 -311 -126 -22 23 -24 33 -22
102 1 50 15 126 38 217 65 249 70 359 21 402 -29 24 -74 30 -107 13 -39 -21
-53 -68 -57 -198 l-4 -123 -112 -101 c-294 -265 -502 -376 -713 -379 -63 -1
-79 2 -112 24 -83 55 -100 155 -56 332 28 112 71 203 128 273 22 26 43 56 47
68 9 22 87 67 101 58 10 -6 40 -73 58 -131 18 -54 45 -83 77 -83 20 0 29 9 44
43 11 23 20 57 20 75 0 43 -69 185 -114 235 -45 48 -91 50 -157 8 -45 -29
-161 -145 -190 -191 -16 -25 -18 -25 -160 -25 -154 0 -209 10 -342 62 -52 20
-79 39 -121 84 -72 76 -105 93 -172 86 -101 -10 -217 -93 -331 -234 -102 -126
-132 -171 -182 -270 -103 -205 -96 -372 21 -480 61 -55 98 -64 218 -53 171 16
295 76 410 196 150 158 223 365 175 499 -8 22 -15 40 -15 41 0 0 26 -12 58
-27 76 -37 134 -49 242 -49 50 0 90 -4 90 -9 0 -5 -11 -33 -25 -64 -93 -211
-78 -434 37 -544 57 -55 110 -73 217 -73 210 0 388 83 651 304 46 39 107 88
134 110 l49 39 -6 -29 c-13 -55 -20 -191 -13 -236 8 -55 48 -119 89 -143 61
-36 197 -15 306 48 101 59 230 202 356 395 33 51 62 92 66 92 3 0 12 -38 21
-85 32 -161 97 -260 188 -285 88 -24 221 30 410 166 50 36 93 64 94 62 2 -1
21 -37 42 -78 54 -105 171 -221 279 -277 143 -74 207 -88 390 -88 154 0 163 1
248 31 124 45 190 87 288 184 70 70 94 103 132 179 l47 93 0 179 0 179 -395 0
-395 0 0 -130 0 -130 231 0 230 0 -6 -22 c-14 -50 -75 -135 -121 -170 -69 -53
-132 -73 -234 -73 -109 0 -175 18 -249 65 -104 68 -160 178 -168 335 -14 251
103 418 320 455 129 23 268 -22 338 -110 l32 -40 199 0 c109 0 198 2 198 5 0
2 -11 34 -24 69 -77 205 -239 341 -471 397 -109 26 -309 25 -415 -2z m-3747
-629 c30 -16 63 -30 74 -30 12 0 34 -15 51 -34 44 -51 60 -154 38 -245 -9 -36
-27 -82 -40 -102 -42 -63 -136 -157 -198 -199 -65 -43 -100 -55 -194 -65 -59
-6 -63 -5 -96 24 -54 47 -63 77 -49 169 14 99 59 191 152 313 117 153 162 199" />
  <!-- This is t -->
<path d="M9190 2175 l0 -145 -70 0 -71 0 3 -152 3 -152 68 3 67 2 0 -253 c0
-379 21 -468 133 -557 75 -59 134 -74 315 -79 l163 -4 -3 153 -3 154 -98 5
c-144 7 -137 -9 -137 306 0 140 0 257 0 262 0 4 53 8 118 9 l117 1 3 151 3
150 -122 3 -121 3 1 143 2 142 -186 0 -185 0 0 -145z" />
  <!-- This is blue rectangular of A -->
<path d="M12611 1748 c-20 -80 -63 -239 -77 -285 -6 -23 -6 -23 116 -23 122 0
122 0 115 23 -13 42 -95 355 -95 365 0 1 -8 2 -19 2 -15 0 -23 -16 -40 -82z" 
fill="#006cd8"/>
  <!-- This is D -->
<path d="M1136 2288 c-24 -14 -56 -74 -56 -106 0 -24 10 -40 40 -68 49 -45 50
-61 15 -206 -25 -105 -99 -544 -110 -653 -3 -33 -11 -87 -17 -120 -8 -49 -7
-71 6 -124 10 -35 24 -74 33 -88 49 -74 159 -70 328 12 50 24 149 64 220 88
327 113 567 245 739 407 180 171 227 316 159 492 -60 154 -156 250 -306 309
-145 55 -204 61 -639 63 -219 1 -404 -2 -412 -6z m784 -172 c169 -22 276 -64
349 -138 41 -42 58 -74 72 -137 15 -70 -6 -135 -77 -242 -87 -131 -123 -163
-259 -229 -134 -66 -508 -199 -658 -235 l-97 -23 -13 22 c-17 30 -13 208 7
336 9 58 30 170 45 250 16 80 39 200 52 267 l23 121 105 7 c58 3 111 8 116 10
27 9 233 3 335 -9z"/>
  <!-- This is a -->
<path d="M8148 2040 c-177 -31 -307 -128 -384 -287 -45 -93 -64 -183 -64 -313
0 -135 20 -225 71 -328 70 -143 191 -242 340 -277 80 -19 137 -19 216 0 93 22
152 53 211 111 l52 53 0 -80 0 -79 185 0 185 0 0 595 0 595 -185 0 -185 0 0
-80 0 -81 -32 36 c-90 103 -265 161 -410 135z m299 -338 c88 -46 143 -147 143
-266 0 -180 -118 -306 -275 -294 -104 9 -173 59 -219 158 -30 67 -29 207 2
275 35 77 84 121 162 146 42 14 142 3 187 -19z"/>
  <!-- This is e -->
<path d="M10370 2043 c-250 -32 -420 -165 -496 -388 -25 -71 -28 -95 -28 -215
-1 -153 12 -209 72 -325 172 -328 681 -394 951 -124 62 62 150 216 137 238 -4
6 -73 10 -191 10 l-183 0 -36 -44 c-47 -57 -105 -80 -187 -72 -41 3 -73 13
-99 31 -46 30 -90 100 -97 156 l-6 40 411 0 c364 0 411 2 416 16 11 29 6 162
-9 232 -55 264 -255 428 -542 445 -43 3 -94 3 -113 0z m168 -309 c67 -27 116
-87 123 -149 l4 -30 -227 -3 c-254 -3 -243 -6 -212 66 20 49 60 90 109 113 50
23 152 25 203 3z" />
</g>
</svg>
