<?xml version="1.0" encoding="UTF-8"?>
<svg id="Capa_2" data-name="Capa 2" xmlns="http://www.w3.org/2000/svg" viewBox="0 0 20.8 20.54">
  <defs>
    <style>
      .cls-1 {
        fill: #ffffff;
        stroke-width: 0px;
      }
    </style>
  </defs>
  <g id="Object">
    <g>
      <g>
        <path class="cls-1" d="m20.51,5.38c-.16,0-.28-.13-.28-.28V.57h-5.21c-.16,0-.28-.13-.28-.28s.13-.28.28-.28h5.49c.16,0,.28.13.28.28v4.82c0,.16-.13.28-.28.28Z"/>
        <path class="cls-1" d="m20.51,20.54h-5.49c-.16,0-.28-.13-.28-.28s.13-.28.28-.28h5.21v-4.82c0-.16.13-.28.28-.28s.28.13.28.28v5.1c0,.16-.13.28-.28.28Z"/>
        <path class="cls-1" d="m5.25,20.54H.28c-.16,0-.28-.13-.28-.28v-5.1c0-.16.13-.28.28-.28s.28.13.28.28v4.82h4.69c.16,0,.28.13.28.28s-.13.28-.28.28Z"/>
        <path class="cls-1" d="m.28,5.38c-.16,0-.28-.13-.28-.28V.28c0-.16.13-.28.28-.28h4.97c.16,0,.28.13.28.28s-.13.28-.28.28H.57v4.53c0,.16-.13.28-.28.28Z"/>
      </g>
      <path class="cls-1" d="m11.9,10.18c1.4-.53,2.39-1.88,2.39-3.46,0-2.05-1.67-3.72-3.72-3.72s-3.72,1.67-3.72,3.72c0,1.61,1.03,2.98,2.47,3.49-1.98.57-3.43,2.41-3.43,4.58v1.64c0,.12.09.21.21.21h9.12c.12,0,.21-.09.21-.21v-1.64c0-2.2-1.5-4.07-3.53-4.61Zm-4.44-3.46c0-1.72,1.39-3.11,3.11-3.11s3.11,1.39,3.11,3.11-1.35,3.05-3.02,3.1h-.08c-1.72,0-3.11-1.39-3.11-3.1Zm7.25,9.3H6.61v-1.33c0-2.21,1.77-4.01,3.97-4.06h.08c2.23,0,4.05,1.82,4.05,4.06v1.33Z"/>
    </g>
  </g>
</svg>