<?xml version="1.0" encoding="UTF-8"?>
<svg id="Capa_2" data-name="Capa 2" xmlns="http://www.w3.org/2000/svg" viewBox="0 0 32.86 22.79">
  <defs>
    <style>
      .cls-1 {
        fill: #e6e6e7;
        stroke-width: 0px;
      }
    </style>
  </defs>
  <g id="Object">
    <path class="cls-1" d="m20.97,22.5V2.1c0-.16-.13-.28-.28-.28H.28c-.16,0-.28.13-.28.28v20.4c0,.16.13.28.28.28h20.4c.16,0,.28-.13.28-.28Zm-6.94-.28H.57v-12.28h13.46v12.28Zm6.38,0h-5.81v-12.28h5.81s0,12.28,0,12.28Zm0-12.85h0s-19.67,0-19.67,0h-.17V2.38h19.84v6.99Z"/>
    <path class="cls-1" d="m25.19,0c-4.26,0-7.69,3.44-7.69,7.67s3.43,7.67,7.69,7.67,7.67-3.43,7.67-7.67S29.41,0,25.19,0Zm4.62,9.04h-2.9v3.25h-3.08v-3.25h-3.25v-3.08h3.25v-2.9h3.08v2.9h2.9v3.08Z"/>
  </g>
</svg>