<?xml version="1.0" encoding="UTF-8"?>
<svg id="Capa_2" data-name="Capa 2" xmlns="http://www.w3.org/2000/svg" viewBox="0 0 19.94 19.64">
  <defs>
    <style>
      .cls-1 {
        <!-- fill: #e6e6e7; -->
        fill: #555555;
        stroke-width: 0px;
      }
    </style>
  </defs>
  <g id="Object">
    <g>
      <path class="cls-1" d="m19.66,19.64H.28C.13,19.64,0,19.51,0,19.36v-7.76c0-.16.13-.28.28-.28h7.24c.16,0,.28.13.28.28v3.22h4.42v-3.22c0-.16.13-.28.28-.28h7.14c.16,0,.28.13.28.28v7.76c0,.16-.13.28-.28.28Zm-19.09-.57h18.81v-7.2h-6.57v3.22c0,.16-.13.28-.28.28h-4.99c-.16,0-.28-.13-.28-.28v-3.22H.57v7.2Z"/>
      <path class="cls-1" d="m.28,11.88s-.06,0-.09-.01c-.15-.05-.23-.21-.18-.36L3.73.19c.04-.12.15-.19.27-.19h12.18c.12,0,.23.08.27.2l3.48,11.31c.05.15-.04.31-.19.35-.15.05-.31-.04-.35-.19L15.97.57H4.2L.55,11.68c-.04.12-.15.19-.27.19Z"/>
    </g>
  </g>
</svg>