<?xml version="1.0" encoding="UTF-8"?>
<svg id="Capa_2" data-name="Capa 2" xmlns="http://www.w3.org/2000/svg" viewBox="0 0 20.39 20.97">
  <defs>
    <style>
      .cls-1 {
        fill: #e6e6e7;
        stroke-width: 0px;
      }
    </style>
  </defs>
  <g id="Object">
    <g>
      <path class="cls-1" d="m18,9.87c-.16,0-.28-.13-.28-.28V.57H2.67v7.08c0,.16-.13.28-.28.28s-.28-.13-.28-.28V.28c0-.16.13-.28.28-.28h15.62c.16,0,.28.13.28.28v9.3c0,.16-.13.28-.28.28Z"/>
      <path class="cls-1" d="m18,20.97H2.39c-.16,0-.28-.13-.28-.28v-8.93c0-.16.13-.28.28-.28s.28.13.28.28v8.64h15.05v-6.57c0-.16.13-.28.28-.28s.28.13.28.28v6.85c0,.16-.13.28-.28.28Z"/>
      <path class="cls-1" d="m18,10.25h0c-.09,0-.18-.04-.23-.12l-2.1-2.95c-.09-.13-.06-.3.07-.4.13-.09.3-.06.4.07l1.87,2.62,1.87-2.62c.09-.13.27-.16.4-.07.13.09.16.27.07.4l-2.1,2.95c-.05.07-.14.12-.23.12Z"/>
      <path class="cls-1" d="m4.49,14.66c-.09,0-.18-.04-.23-.12l-1.87-2.62-1.87,2.62c-.09.13-.27.16-.4.07-.13-.09-.16-.27-.07-.4l2.1-2.95c.05-.07.14-.12.23-.12h0c.09,0,.18.04.23.12l2.1,2.95c.09.13.06.3-.07.4-.05.04-.11.05-.16.05Z"/>
    </g>
  </g>
</svg>