<?xml version="1.0" encoding="UTF-8"?>
<svg id="Capa_2" data-name="Capa 2" xmlns="http://www.w3.org/2000/svg" viewBox="0 0 15.5 22.17">
  <defs>
    <style>
      .cls-1 {
        fill: #e6e6e7;
        stroke-width: 0px;
      }
    </style>
  </defs>
  <g id="Object">
    <path class="cls-1" d="m9.77,11.67c2.28-.86,3.88-3.06,3.88-5.62,0-3.33-2.71-6.05-6.05-6.05S1.56,2.71,1.56,6.05c0,2.62,1.67,4.84,4.01,5.67-3.22.93-5.57,3.92-5.57,7.44v2.67c0,.2.15.34.34.34h14.82c.2,0,.34-.15.34-.34v-2.67c0-3.58-2.44-6.61-5.74-7.49ZM2.25,6.05C2.25,3.09,4.65.69,7.61.69s5.35,2.4,5.35,5.35-2.32,5.26-5.21,5.34h-.15c-2.95,0-5.35-2.38-5.35-5.34Zm12.48,15.38H.77v-2.3c0-3.8,3.05-6.92,6.84-7h.14c3.85,0,6.98,3.15,6.98,7v2.3Z"/>
  </g>
</svg>