<?xml version="1.0" encoding="UTF-8"?>
<svg id="Capa_2" data-name="Capa 2" xmlns="http://www.w3.org/2000/svg" viewBox="0 0 23.63 20.54">
  <defs>
    <style>
      .cls-1 {
        fill: #ffffff;
        stroke-width: 0px;
      }
    </style>
  </defs>
  <g id="Object">
    <g>
      <path class="cls-1" d="m18.37,0H.29c-.16,0-.29.12-.29.28v19.98c0,.15.13.28.29.28h18.08c.16,0,.28-.13.28-.28v-4.7h-.56v4.41H.57V.56h17.52v4h.56V.28c0-.16-.12-.28-.28-.28Zm-.28,11.01h.56v-2.46h-.56v2.46Z"/>
      <path class="cls-1" d="m19.84,4H5.06c-.15,0-.28.02-.28.06v5s.13.05.28.05h14.78c.15,0,.28-.02.28-.05v-4.78c0-.16-.13-.28-.28-.28Zm-.29,4.55H5.35v-3.99h14.2v3.99Z"/>
      <path class="cls-1" d="m23.35,11.01h-14.78c-.15,0-.28.02-.28.06v5s.13.05.28.05h14.78c.15,0,.28-.02.28-.05v-4.78c0-.16-.13-.28-.28-.28Zm-.29,4.55h-14.2v-3.99h14.2v3.99Z"/>
      <g>
        <path class="cls-1" d="m9.08,5.32l-.83,1.09v.02l1.32-.17v.59l-1.32-.16v.02l.84,1.05-.55.31-.52-1.22h-.02l-.57,1.23-.5-.31.83-1.07v-.02l-1.29.17v-.59l1.29.17v-.02l-.82-1.07.53-.31.54,1.22h.02l.53-1.22.52.3Z"/>
        <path class="cls-1" d="m13.52,5.32l-.83,1.09v.02l1.32-.17v.59l-1.32-.16v.02l.84,1.05-.55.31-.52-1.22h-.02l-.57,1.23-.5-.31.83-1.07v-.02l-1.29.17v-.59l1.29.17v-.02l-.82-1.07.53-.31.54,1.22h.02l.53-1.22.52.3Z"/>
        <path class="cls-1" d="m17.93,5.32l-.83,1.09v.02l1.32-.17v.59l-1.32-.16v.02l.84,1.05-.55.31-.52-1.22h-.02l-.57,1.23-.5-.31.83-1.07v-.02l-1.29.17v-.59l1.29.17v-.02l-.82-1.07.53-.31.54,1.22h.02l.53-1.22.52.3Z"/>
      </g>
      <g>
        <path class="cls-1" d="m12.85,12.33l-.83,1.09v.02l1.32-.17v.59l-1.32-.16v.02l.84,1.05-.55.31-.52-1.22h-.02l-.57,1.23-.5-.31.83-1.07v-.02l-1.29.17v-.59l1.29.17v-.02l-.82-1.07.53-.31.54,1.22h.02l.53-1.22.52.3Z"/>
        <path class="cls-1" d="m17.29,12.33l-.83,1.09v.02l1.32-.17v.59l-1.32-.16v.02l.84,1.05-.55.31-.52-1.22h-.02l-.57,1.23-.5-.31.83-1.07v-.02l-1.29.17v-.59l1.29.17v-.02l-.82-1.07.53-.31.54,1.22h.02l.53-1.22.52.3Z"/>
        <path class="cls-1" d="m21.71,12.33l-.83,1.09v.02l1.32-.17v.59l-1.32-.16v.02l.84,1.05-.55.31-.52-1.22h-.02l-.57,1.23-.5-.31.83-1.07v-.02l-1.29.17v-.59l1.29.17v-.02l-.82-1.07.53-.31.54,1.22h.02l.53-1.22.52.3Z"/>
      </g>
    </g>
  </g>
</svg>