<?xml version="1.0" encoding="UTF-8"?>
<svg id="Capa_2" data-name="Capa 2" xmlns="http://www.w3.org/2000/svg" viewBox="0 0 66.7 18.94">
  <defs>
    <style>
      .cls-1 {
        fill: #fff;
        stroke-width: 0px;
      }
    </style>
  </defs>
  <g id="Object">
    <g id="Capa_1-2" data-name="Capa_1">
      <g id="_634935136" data-name=" 634935136">
        <path class="cls-1" d="m12.78,2.74c-.07.3-.2.55-.4.76-.2.21-.44.32-.73.32-.18,0-.38-.03-.59-.08-.21-.06-.29-.15-.27-.27.05-.22.17-.44.35-.64.18-.2.39-.37.61-.5.18-.09.29-.14.34-.14.26,0,.45.04.58.11.13.07.16.22.12.44Zm2.15,4.3c0,.1-.03.24-.11.43s-.2.41-.34.66c-.14.25-.31.52-.5.81-.19.29-.39.59-.6.89-.24.34-.49.68-.76,1.01-.27.33-.56.65-.87.98-.61.64-1.15,1.05-1.83,1.07-.55.02-.94-.18-1.17-.56-.22-.38-.33-.83-.32-1.36,0-.52.07-1.07.19-1.62.05-.23.16-.6.32-1.09.08-.25.15-.46.22-.64.07-.18.13-.32.18-.43.11-.21.29-.4.53-.56.25-.17.48-.25.71-.25.12,0,.16.11.11.35-.03.15-.09.33-.16.53-.07.2-.15.39-.22.58-.14.36-.26.68-.34.97-.09.29-.16.53-.21.74-.1.46-.14.93-.12,1.4.02.48.2.74.53.72.21-.01.59-.26,1.01-.62.21-.18.43-.38.64-.6s.43-.45.64-.7c.22-.25.43-.5.62-.75.2-.25.39-.5.58-.76.19-.26.36-.5.51-.72.15-.22.28-.42.39-.61,0,0,.01-.03.02-.05.01-.02.02-.05.04-.07s.02-.05.04-.06c.01-.02.03-.03.04-.02.06-.01.1.02.14.12.04.09.07.16.07.23Z"/>
        <path class="cls-1" d="m20.06,7.24s0,.07,0,.12c0,.05-.02.11-.04.16-.02.05-.04.1-.07.14s-.06.06-.1.06c-.03,0-.07,0-.14,0-.06,0-.13,0-.2,0-.07,0-.14,0-.2,0-.06,0-.11,0-.14,0-.87.06-1.6.37-2.18.96-.57.57-1.06,1.34-1.48,2.29-.08.2-.15.4-.23.61-.07.21-.15.43-.21.66-.04.13-.06.24-.08.34-.02.1-.04.2-.08.31,0,.04-.05.07-.11.11-.07.03-.15.07-.23.09-.09.03-.17.05-.24.07-.08.02-.13.03-.16.03-.32.02-.49-.31-.53-.98-.01-.18-.02-.35-.02-.5,0-.15,0-.29.02-.43,0-.14.02-.29.04-.44.02-.15.03-.33.05-.52.02-.24.05-.51.08-.82.03-.31.07-.62.11-.94.04-.31.08-.62.13-.9.05-.29.09-.52.15-.71.05-.21.12-.37.21-.48.09-.11.22-.16.4-.17.04,0,.09.01.15.04.05.03.1.06.14.1.04.04.08.08.11.13.03.04.05.09.05.12,0,.11,0,.24,0,.37,0,.14-.03.27-.05.42-.02.14-.05.29-.08.43-.03.15-.07.29-.1.42-.07.26-.11.48-.15.67-.04.19-.06.37-.09.54-.02.18-.05.36-.07.56-.02.2-.05.45-.09.74.08-.17.14-.32.2-.45.06-.12.11-.23.15-.33.04-.1.09-.18.13-.25.04-.08.08-.15.13-.23.05-.08.1-.17.15-.26.05-.1.12-.21.21-.35.32-.53.66-.96,1.03-1.3.37-.34.72-.58,1.06-.72.38-.18.7-.28.95-.29.12,0,.26,0,.42.02.17.02.32.05.47.1s.28.12.39.2c.11.08.16.18.16.29Z"/>
        <path class="cls-1" d="m34.75,8s0,.09-.02.16c-.01.07-.04.13-.06.21-.02.07-.05.15-.09.22-.03.08-.07.14-.11.2-.08.12-.18.26-.31.41-.12.15-.26.32-.42.48-.15.17-.31.34-.48.5-.17.17-.34.32-.51.46-.13.11-.29.23-.46.36s-.36.26-.55.37c-.19.11-.39.21-.59.29-.2.07-.39.11-.57.11-.16,0-.31-.02-.44-.07-.13-.05-.25-.13-.36-.26-.11-.13-.2-.3-.28-.52-.08-.22-.15-.5-.21-.85-.03-.15-.05-.3-.07-.47-.02-.17-.04-.33-.06-.5-.02-.17-.04-.32-.06-.48-.02-.15-.04-.29-.07-.4-.02-.12-.05-.21-.08-.28-.03-.07-.06-.1-.1-.1-.06,0-.14.05-.25.15-.1.1-.23.25-.38.44-.14.19-.3.42-.47.68-.17.26-.35.56-.54.89-.37.66-.68,1.16-.94,1.5-.26.34-.49.51-.7.51-.32,0-.53-.15-.64-.45-.1-.3-.16-.8-.19-1.51-.01-.69-.06-1.22-.15-1.59-.08-.37-.19-.56-.32-.56-.08,0-.2.07-.36.22-.16.15-.33.35-.53.61-.2.26-.41.57-.65.92-.23.35-.47.74-.7,1.15-.06.11-.14.24-.22.38-.08.14-.17.29-.25.43-.09.15-.17.28-.25.41-.08.13-.15.23-.21.31-.13.19-.29.29-.48.29-.35,0-.57-.18-.68-.53-.03-.09-.05-.17-.07-.22-.02-.06-.03-.12-.04-.17,0-.06-.02-.12-.02-.19,0-.07,0-.16,0-.27,0-.18,0-.35.02-.51.01-.15.03-.31.04-.46.02-.16.04-.32.07-.5.03-.18.05-.39.08-.62.02-.2.04-.41.06-.63.02-.22.04-.44.05-.65.01-.21.03-.41.05-.59.01-.18.04-.32.07-.42.01-.06.04-.12.09-.19.05-.08.11-.15.18-.21.07-.07.14-.12.21-.17.07-.05.14-.07.19-.07.1,0,.17.02.24.07.06.04.11.1.15.18s.07.16.08.26c.02.1.03.2.03.3,0,.11-.01.25-.03.41-.02.16-.05.34-.08.53-.03.19-.07.39-.11.6-.04.21-.07.4-.11.59-.04.19-.07.36-.1.52-.03.16-.05.29-.06.39-.04.25-.07.45-.08.6-.01.15-.02.27-.02.36.06-.06.13-.15.22-.27s.19-.26.3-.42c.11-.16.23-.34.35-.53s.24-.39.37-.59c.09-.14.18-.3.29-.48.11-.18.22-.36.34-.54.12-.18.23-.35.35-.51.11-.16.22-.29.32-.4.19-.22.39-.39.6-.5.2-.11.42-.17.64-.17s.41.09.57.26c.16.17.27.4.32.67.03.13.05.27.07.44s.03.34.04.52c.01.18.03.37.04.55.01.18.02.36.04.52.01.16.03.29.06.4.03.1.05.19.08.25.03.06.05.11.08.13.02.03.04.04.05.04.09,0,.23-.18.44-.54.11-.18.22-.39.35-.61.13-.22.27-.47.43-.74.15-.26.32-.52.5-.77.18-.25.35-.46.52-.65.17-.19.33-.34.48-.45.15-.11.28-.17.38-.17.07,0,.14,0,.21.02.07.01.15.03.21.06.07.03.13.06.18.1.05.04.09.08.12.13.07.11.12.23.15.37.03.14.05.3.07.48.01.18.03.38.04.6.01.22.03.47.06.74.06.57.16,1,.3,1.28.14.28.33.42.58.42.1,0,.21-.03.36-.1.15-.07.3-.15.47-.25s.33-.22.5-.35c.17-.13.33-.26.47-.39.15-.13.29-.26.42-.39.13-.13.27-.26.41-.4.14-.13.28-.27.42-.42.14-.14.3-.3.46-.46.05-.05.1-.08.15-.08.07,0,.1.06.1.18Z"/>
        <path class="cls-1" d="m43.78,8.11c0,.05,0,.12-.02.19-.01.08-.03.15-.06.23-.02.08-.05.15-.08.23-.03.07-.06.12-.09.17-.03.04-.07.09-.12.15-.05.06-.11.13-.17.2-.07.07-.13.15-.21.23-.07.08-.15.16-.23.23-.28.26-.56.51-.83.76-.27.24-.55.46-.84.65-.29.19-.59.34-.9.45-.31.11-.65.16-1.02.16-.17,0-.34-.03-.51-.09-.17-.06-.33-.15-.48-.26-.15-.11-.28-.25-.39-.41-.11-.16-.19-.33-.23-.53-.13.14-.27.28-.42.43-.15.15-.3.3-.46.45s-.32.3-.49.44c-.17.14-.34.27-.52.39-.1.07-.22.13-.36.21-.14.07-.29.14-.44.2-.15.06-.31.11-.46.15-.15.04-.29.06-.41.06-.19,0-.35-.06-.48-.18-.14-.12-.25-.26-.34-.43-.09-.17-.15-.35-.2-.54-.04-.19-.07-.36-.07-.51,0-.3.04-.61.13-.93.09-.31.2-.62.34-.92.14-.3.29-.58.47-.85.17-.27.34-.51.5-.72.17-.22.38-.44.62-.65.24-.21.48-.41.74-.58.26-.17.51-.31.75-.41.25-.11.47-.16.66-.16h.3c.11,0,.22,0,.32.02.11.01.21.03.31.05.1.03.19.06.28.12.04.03.09.08.14.16.06.08.11.16.15.26.05.1.09.19.12.29.03.1.05.17.05.23,0,.15-.04.35-.1.6-.07.32-.14.6-.2.86-.06.26-.09.52-.09.8,0,.15.03.31.07.48.05.16.12.31.22.44.09.13.21.24.34.32.14.09.29.13.46.13.28,0,.56-.06.86-.18.29-.12.59-.28.89-.48.3-.2.6-.44.9-.71.3-.27.59-.55.88-.85.02-.03.06-.08.12-.14.06-.07.12-.13.18-.2.06-.07.12-.13.18-.18.06-.05.1-.08.13-.08.1,0,.15.09.15.28Zm-6.1-.57c0-.08,0-.17-.01-.29,0-.11-.04-.21-.09-.28-.05-.08-.11-.11-.18-.11-.07,0-.15,0-.22,0-.16,0-.31.02-.46.08-.15.05-.29.12-.43.21-.14.09-.28.19-.41.31-.13.12-.26.24-.38.37-.1.1-.21.23-.33.39-.12.15-.23.33-.34.51-.11.18-.22.38-.33.58-.1.2-.2.4-.27.6-.08.2-.14.39-.18.57s-.07.35-.07.5c0,.05,0,.11.02.18.01.07.03.15.06.22.02.07.06.13.1.18.04.05.1.08.16.08.21,0,.47-.07.79-.2.43-.18.82-.43,1.17-.75.35-.32.65-.68.89-1.1.36-.65.54-1.33.54-2.06Z"/>
        <path class="cls-1" d="m45.17,3.6h-3.69v9.85h3.69c3.14,0,5.17-2.01,5.17-4.93s-2.02-4.93-5.17-4.93Zm-1.29,7.78v-5.73h1.14c1.81,0,2.88,1.07,2.88,2.88s-1.07,2.85-2.88,2.85h-1.14Zm14.9-1.84c0-2.48-1.77-4.03-4.07-4.03s-4.07,1.54-4.07,4.03,1.74,4.03,4.04,4.03,4.1-1.54,4.1-4.03Zm-5.7,0c0-1.33.76-1.95,1.63-1.95s1.63.62,1.63,1.95-.8,1.95-1.66,1.95-1.6-.63-1.6-1.95Zm5.93,0c0,2.49,1.63,4.03,3.93,4.03,1.97,0,3.36-1.14,3.76-2.95h-2.55c-.21.58-.59.9-1.25.9-.86,0-1.45-.68-1.45-1.98s.59-1.98,1.45-1.98c.66,0,1.05.35,1.25.9h2.55c-.41-1.87-1.8-2.95-3.76-2.95-2.3,0-3.93,1.56-3.93,4.03Z"/>
        <path class="cls-1" d="m13.21,0c.14,0,.27.09.41.27.06.08.09.18.1.28v.02c.02.25-.11.42-.39.53-2.56.05-4.34.1-5.34.15-1.24.09-1.87.17-1.86.25-.09.03-.21.14-.35.35-.15.33-.37.98-.67,1.94-.36,1.17-.54,1.78-.54,1.84v.05c.07.2.17.3.32.3,1.58-.08,2.44-.12,2.57-.12.17,0,.32.11.46.33.04.07.07.15.07.22.02.25-.1.42-.37.52,0,.02-.72.06-2.16.12-.86.06-1.29.09-1.29.12-.07.03-.18.36-.33.99-.51,1.8-.92,3.56-1.24,5.27-.05.31-.09.65-.1,1.01-.1.26-.27.38-.51.38-.23,0-.42-.14-.55-.42,0-.03-.01-.06-.01-.09v-.03c-.06-.73.42-3,1.45-6.81.02,0,.03-.04.02-.12,0-.11-.1-.23-.26-.36-.07-.1-.12-.2-.13-.31-.02-.27.12-.45.41-.55.19,0,.32-.05.38-.15.36-1.27.74-2.52,1.12-3.74v-.1c-.06-.19-.17-.28-.33-.28h-.01c-.17,0-.63.17-1.38.52-1.13.65-1.66,1.49-1.57,2.52l.02.21c.06.79.49,1.78,1.28,2.97.04.06.06.13.07.21v.02c.02.27-.12.45-.44.54h-.06c-.28,0-.52-.2-.71-.59C.52,7.05.09,5.96.01,4.98H.01C-.13,3.16.87,1.83,3.04.98c.4-.16,1-.33,1.81-.49.55-.12,1.54-.23,2.97-.33.88-.06,2.68-.12,5.39-.16Z"/>
        <path class="cls-1" d="m5.33,18.93c-.08.01-.17,0-.23-.05-.07-.05-.11-.12-.12-.21,23.72-4.68,55.64-2.81,58.81-1.88,1.78.48.63,2-1.16,1.41-12.79-3.18-43.89-1.96-57.3.73Z"/>
      </g>
    </g>
  </g>
</svg>